<svg width="204" height="130" fill="none" xmlns="http://www.w3.org/2000/svg"><path d="M187.502 73.098c0 31.414-40.395 18.15-75.491 42.882-50.993 35.901-97.988-3.989-101.987-42.882-4.4-43.08 23.697-56.843 78.39-56.843s99.088 25.43 99.088 56.843Z" fill="#FCF8AE"/><path d="M7.224 51.059c.2.399.3.798.5 1.197s.3.698.5 1.097c-.5.299-1 .598-1.6.797l-1.5.599c-.5.2-1 .399-1.5.698-.5.3-.9.698-1.2 1.296 2.5.499 5 .599 7.3.4 2.4-.3 4.8-.6 7.399-.998-.7-2.094-.9-4.288-.6-6.283.3-2.094 1-4.088 2-6.083 1-1.994 2.3-3.89 3.8-5.784 1.5-1.895 3.199-3.69 4.899-5.485 1.7-1.795 3.5-3.49 5.299-5.086 1.8-1.595 3.4-3.19 5-4.687l.8-.798c.3-.299.6-.498.9-.797-2.4-.1-5.1.299-8.2 1.097-3 .797-6 1.894-8.799 3.29-2.9 1.397-5.5 2.893-7.899 4.688-2.4 1.695-4.1 3.49-5.2 5.185-.999-.698-1.599-1.496-1.799-2.393-.2-.898-.1-1.596.2-2.393.3-.798.8-1.596 1.5-2.294l2.1-2.094c2.1-1.895 4.6-3.59 7.399-5.086 2.8-1.496 5.699-2.693 8.799-3.59 3.1-.998 6.299-1.696 9.598-2.194 3.3-.499 6.5-.798 9.7-.798 3.199 0 6.299.2 9.298.598 3 .399 5.8 1.097 8.3 1.995 1.599.598 2.899 1.595 4.099 3.091 1.2 1.496 2 3.191 2.5 5.086.5 1.895.7 3.89.4 5.884-.3 1.994-1 3.79-2.3 5.285-3.4 4.089-7.3 7.58-11.599 10.471-4.3 2.992-8.999 5.485-13.998 7.48-5 1.994-10.199 3.59-15.598 4.687-5.5 1.097-11 1.994-16.698 2.393-1 0-2 0-3-.1s-2.1-.299-3.1-.398c-.8-.1-1.4-.3-2-.699-.5-.398-1-.797-1.4-1.196a5.95 5.95 0 0 1-.9-1.496c-.299-.599-.499-1.097-.599-1.695-.1-.898.1-1.596.6-2.194.5-.599 1.2-1.097 2-1.397.8-.398 1.7-.698 2.6-.797.7-.3 1.4-.499 2-.499Zm12.799 4.189c2.6-.5 5.399-1.197 8.299-1.995 2.9-.798 5.799-1.795 8.799-2.892 3-1.097 5.899-2.393 8.798-3.79 2.9-1.396 5.6-2.892 8.2-4.587 2.6-1.695 4.999-3.49 7.099-5.385 2.1-1.895 3.999-3.989 5.399-6.083.4-.599.8-1.297 1.1-1.895.3-.598.5-1.296.5-1.895.1-.598-.1-1.197-.3-1.795-.3-.598-.8-1.097-1.5-1.496-2.5-1.496-5.2-2.493-7.9-2.892-2.799-.399-5.599-.598-8.598-.498.4.698.5 1.296.2 1.695s-.6.798-1.1 1.197c-2 1.695-3.9 3.29-5.8 4.886s-3.799 3.291-5.599 5.086c-1.6 1.496-3.2 3.191-4.999 4.986-1.7 1.795-3.4 3.69-5 5.685-1.6 1.994-3.099 3.989-4.499 5.983-1.3 1.795-2.3 3.79-3.1 5.684ZM59.318 56.345c.9-3.49 2.4-6.482 4.5-9.175 1.999-2.593 4.699-4.687 8.098-6.183 1.3-.598 2.5-.897 3.6-.798 1.1.1 2.2.4 3.2.998s1.9 1.296 2.799 2.194c.8.897 1.6 1.794 2.3 2.692 1.6 2.094 1.4 4.089-.6 5.784-2.7 2.394-5.8 3.79-9.3 4.288-1.399.2-2.599 0-3.699-.598-1.1-.598-2.1-1.296-3.1-1.895-.4.499-.9 1.197-1.399 1.895-.5.798-1 1.596-1.4 2.393-.4.798-.6 1.596-.8 2.394-.1.797 0 1.396.3 1.894 2.5-.1 5.1-.398 7.9-1.096 2.799-.599 5.599-1.496 8.398-2.494 2.8-.997 5.5-2.393 8.2-3.79 2.699-1.495 5.198-3.09 7.398-4.985 2.3-1.795 4.2-3.79 5.9-5.884 1.699-2.094 2.999-4.288 3.799-6.682.2-.698.6-1.097 1-1.396.5-.2 1.2.1 2.3.898 1.499 1.795 2.299 3.39 2.399 4.786.1 1.397-.2 2.892-.999 4.289-1.6 2.892-3.6 5.385-6.2 7.579-2.599 2.194-5.4 4.088-8.599 5.684-3.1 1.596-6.299 2.792-9.698 3.79-3.3.897-6.5 1.595-9.5 1.994-1.7.2-3.399.3-5.299.399-1.9.1-3.6 0-5.299-.3-1.1-.099-2.1-.498-2.9-.996-.9-.599-1.6-1.197-2.2-2.095a6.57 6.57 0 0 1-1.2-2.692c-.2-.798-.2-1.895.1-2.892Zm19.597-11.07c-.7.1-1.5.4-2.4.798-.9.499-1.9.997-2.799 1.596-1 .598-1.8 1.196-2.7 1.894-.8.599-1.5 1.197-1.9 1.795.8.3 1.7.3 2.7 0 1-.199 2-.598 2.9-1.196.9-.499 1.8-1.197 2.6-2.094.8-.798 1.3-1.696 1.6-2.793ZM30.921 125.354c0 .399 0 .798-.3.997-.2.2-.5.3-1 .2-1.5-.399-2.6-1.097-3.4-1.895-.8-.798-1.3-1.795-1.599-2.992-.3-1.196-.3-2.393-.2-3.889.2-1.396.5-2.992.9-4.587.9-3.491 2-7.081 3.5-10.671 1.5-3.59 3.199-7.18 4.999-10.47 1.8-3.292 3.8-6.483 5.9-9.475 2.099-2.892 4.199-5.385 6.298-7.48 2.8-2.791 5.4-2.093 7.9 2.095-.6.1-1.3.598-2.1 1.396-.8.798-1.6 1.695-2.4 2.593-.8.997-1.6 1.895-2.3 2.792-.7.898-1.3 1.596-1.7 2.095 1.4-.698 2.8-1.297 4.1-1.995 1.3-.698 2.7-1.197 3.9-1.695 1.3-.499 2.5-.798 3.599-.998 1.1-.199 2.1-.1 3 .1.8.2 1.5.698 2.2 1.297.7.598 1.3 1.296 2 1.994.799.798 1.199 1.695 1.299 2.593.1.898 0 1.895-.4 2.792-.6 1.297-1.3 2.593-2.2 3.79a47.72 47.72 0 0 1-2.7 3.29c1.2-.298 2.2-.697 3.2-1.096 1-.4 1.9-.898 2.7-1.297.8-.498 1.7-.997 2.5-1.595.8-.599 1.7-1.297 2.7-1.995l1.599 2.394c-2.4 2.094-4.9 3.79-7.699 5.185-2.8 1.396-5.7 2.493-8.799 3.391-3.1.897-6.2 1.496-9.399 1.994-3.2.499-6.399.798-9.499.898-.7 1.396-1.4 2.992-2.3 4.787a93.48 93.48 0 0 0-2.3 5.584c-.699 1.895-1.299 3.69-1.699 5.485-.4 1.596-.5 3.092-.3 4.388Zm29.397-41.485c-2-.2-4 .1-6 .997-2.1.897-4 2.094-5.899 3.69-1.9 1.595-3.6 3.49-5.1 5.684a30.149 30.149 0 0 0-3.699 6.781c1.9-.498 3.7-1.097 5.4-1.795 1.7-.698 3.4-1.595 5.099-2.493.9-.598 2-1.396 3.2-2.294 1.2-.997 2.4-2.094 3.499-3.19 1.1-1.197 2-2.394 2.7-3.69.7-1.297.9-2.494.8-3.69Z" fill="#593B00"/><path d="M94.513 105.11c-1.1.997-2 1.795-2.6 2.393-.6.599-1.2.998-1.6 1.297-.399.299-.699.498-.899.598-.2.1-.4.2-.5.299-.9.299-1.7.299-2.5 0s-1.5-.798-2-1.496-.9-1.595-1.1-2.792c-.2-1.097-.2-2.393.2-3.889l-2.799 2.692c-1.1 1.097-2.3 1.696-3.7 1.995-1.4.299-2.7.299-3.999-.1-1.2-.399-2.4-.997-3.3-1.994-1-.998-1.5-2.194-1.7-3.59-.1-1.596.1-3.291.8-5.086.7-1.795 1.5-3.49 2.6-5.086a33.2 33.2 0 0 1 3.6-4.588c1.3-1.396 2.5-2.592 3.6-3.39 1.2-.898 2.2-1.596 3.199-1.995 1-.399 2-.698 3-.698s1.9.2 2.9.598c1 .4 1.999.998 3.099 1.696.7-.4 1.3-.798 2-1.396a4.03 4.03 0 0 1 2-.898c.7 0 1.3.3 2 .798.699.499 1.399.898 2.199 1.296-.8 1.795-1.7 3.59-2.6 5.485-.9 1.795-1.7 3.69-2.5 5.485-.8 1.795-1.5 3.79-2.1 5.684-.6 1.895-1.1 3.89-1.3 5.784 2.5-1.894 4.8-3.889 6.8-6.183 2-2.293 4-4.587 5.899-7.08l2.2.997a87.789 87.789 0 0 1-5.099 6.881c-1.8 2.294-3.7 4.388-5.8 6.283Zm-4.999-20.843c-.3-.598-.7-.797-1.2-.797s-.9.2-1.3.399a25.842 25.842 0 0 0-7.599 7.479c-2 2.992-3.4 6.083-4.2 9.474 1.1-.499 2.3-1.297 3.7-2.593 1.4-1.197 2.8-2.693 4.1-4.188 1.4-1.596 2.6-3.192 3.8-4.987 1.2-1.795 2.1-3.39 2.699-4.787Z" fill="#593B00"/><path d="M126.509 105.11c-1.099.997-1.999 1.795-2.599 2.393-.6.599-1.2.998-1.6 1.297-.4.299-.7.498-.9.598-.2.1-.4.2-.5.299-.9.299-1.7.299-2.5 0-.799-.299-1.499-.798-1.999-1.496s-.9-1.595-1.1-2.792c-.2-1.197-.2-2.393.2-3.889l-2.8 2.692c-1.1 1.097-2.3 1.696-3.699 1.995-1.4.299-2.7.299-4-.1-1.2-.399-2.4-.997-3.299-1.994-1-.998-1.5-2.194-1.7-3.59-.1-1.596.1-3.291.8-5.086.7-1.795 1.499-3.49 2.599-5.086 1.1-1.696 2.3-3.192 3.6-4.588 1.3-1.396 2.5-2.592 3.599-3.39 1.2-.898 2.2-1.596 3.2-1.995s2-.698 3-.698 1.899.2 2.899.598c1 .4 2 .998 3.1 1.696.7-.4 1.3-.798 2-1.396a4.03 4.03 0 0 1 1.999-.898c.7 0 1.3.3 2 .798.7.499 1.4.898 2.2 1.296-.8 1.795-1.7 3.59-2.6 5.485-.9 1.795-1.7 3.69-2.499 5.485-.8 1.795-1.5 3.79-2.1 5.684-.6 1.895-1.1 3.89-1.3 5.784 2.5-1.894 4.799-3.889 6.799-6.183 2-2.293 4-4.587 5.899-7.08l2.2.997a87.537 87.537 0 0 1-5.099 6.881c-1.8 2.294-3.8 4.388-5.8 6.283Zm-4.999-20.843c-.3-.598-.7-.797-1.2-.797s-.9.2-1.3.399a25.853 25.853 0 0 0-7.599 7.479c-1.999 2.992-3.399 6.083-4.199 9.474 1.1-.499 2.3-1.297 3.699-2.593 1.4-1.197 2.8-2.693 4.1-4.188 1.3-1.496 2.6-3.192 3.799-4.987 1.2-1.795 2.1-3.39 2.7-4.787Z" fill="#593B00"/><path d="M141.208 118.074c-3 3.69-6.799 6.183-11.599 7.579-1.9.499-3.599.499-5.099 0-1.5-.598-3-1.496-4.3-2.792a3.69 3.69 0 0 1-.8-1.795c-.1-.598-.1-1.296 0-2.094.1-.698.3-1.396.6-2.194.3-.698.6-1.396 1.1-2.194.8-1.396 1.8-2.593 2.9-3.69 1.1-1.097 2.3-2.194 3.699-3.191 1.4-.997 2.9-1.995 4.5-3.092s3.399-2.194 5.299-3.49c-.6-1.596-1.1-2.992-1.5-4.089-.4-1.097-.7-1.994-1-2.792-.3-.798-.5-1.396-.599-1.895-.1-.498-.3-.997-.4-1.496-.4-1.595-.4-3.091-.1-4.687.3-1.496.899-2.991 1.699-4.188.8-1.297 1.9-2.394 3.2-3.291 1.3-.898 2.7-1.596 4.299-1.895.8-.1 1.5-.1 2.3 0 .8.1 1.5.4 2.2.798.7.399 1.3.898 1.9 1.396.6.599 1.1 1.197 1.4 1.895-.1.1-.3.1-.5.1h-.5c-2.2.1-3.9.598-5.3 1.495-1.4.898-2.399 2.095-2.999 3.59-.6 1.496-.9 3.291-.8 5.386.1 2.094.5 4.288 1.3 6.781 3.099-1.995 6.599-3.69 10.498-5.285a62.606 62.606 0 0 1 12.099-3.59c4.099-.798 8.199-1.197 12.198-.998 4 .2 7.799.898 11.199 2.294 1.5.598 2.7 1.596 3.3 2.892.699 1.296.899 3.091.699 5.385-.4 1.296-.799 2.094-1.399 2.194-.5.1-1.1-.1-1.6-.598-3-2.493-6.399-4.288-10.399-5.186-3.899-.898-7.999-1.197-12.198-.997-4.2.299-8.299.997-12.399 2.194-4.099 1.196-7.699 2.592-10.899 4.288.4 1.795.8 3.39 1.1 4.886.3 1.396.4 2.793.3 4.089-.1 1.297-.4 2.593-.9 3.989-.5 1.296-1.299 2.693-2.499 4.288Zm-18.398 3.191c1.9-.199 3.699-.797 5.499-1.894 1.8-1.097 3.4-2.493 4.9-4.089a19.528 19.528 0 0 0 3.299-5.285c.8-1.895 1.1-3.79.9-5.485-1.7 1.097-3.399 2.194-5.099 3.39a36.504 36.504 0 0 0-4.8 3.79c-1.399 1.296-2.599 2.792-3.499 4.388-.9 1.595-1.3 3.191-1.2 5.185ZM102.212 12.665c-.499 0-.999-.2-1.299-.399-.4-.2-.7-.598-.9-.997l-.2.997-1.7-.1.8-10.67-1.2-.3.1-1.196 3.2.2-.3 4.687c.3-.3.6-.599 1-.699.399-.199.799-.199 1.299-.199.7.1 1.3.3 1.7.698.4.399.8.997 1 1.596.2.698.3 1.496.2 2.393v.2c-.1.797-.2 1.495-.5 2.094-.3.598-.7 1.097-1.2 1.396-.7.2-1.3.299-2 .299Zm-.499-1.596c.599 0 1.099-.1 1.499-.598.3-.399.5-.997.6-1.795v-.2c0-.598 0-1.096-.1-1.595-.1-.399-.3-.798-.5-1.097-.3-.3-.6-.399-1-.399-.399 0-.699 0-.999.2-.3.199-.5.398-.7.698l-.3 3.59c.1.299.4.598.6.798.2.199.5.398.9.398ZM106.412 12.864l.1-1.196 1.2-.1.6-5.485-1.2-.399.1-1.196 3.2.398-.8 6.981 1.1.4-.1 1.196-4.2-.599Zm2.3-10.172.2-1.795 2 .2-.2 1.795-2-.2ZM115.511 14.16c-.8-.099-1.4-.398-2-.897-.6-.498-.9-.997-1.1-1.695-.2-.698-.3-1.396-.1-2.194l.1-.299c.1-.798.4-1.496.8-2.094.4-.599.9-.998 1.5-1.297.6-.299 1.3-.399 2-.2.8.1 1.4.4 1.8.799.5.399.8.897 1 1.496.2.598.2 1.296.1 2.094l-.2 1.097-5.1-.798c0 .399 0 .798.1 1.197s.3.698.6.897c.3.2.6.399 1.1.499.5.1.9.1 1.3 0s.8-.2 1.1-.4l.4 1.297c-.4.2-.8.4-1.4.499-.7.2-1.3.2-2 0Zm-1.1-5.384 3.2.498v-.199c.1-.399.1-.698 0-.997-.1-.3-.2-.499-.4-.698-.2-.2-.5-.3-.9-.4-.3 0-.6 0-.9.1-.3.1-.5.3-.7.599-.2.299-.2.698-.3 1.097ZM120.01 14.76l.2-1.197h1.2l1.1-5.485-1.2-.499.2-1.197 3 .599-.1 1.097v.2c.3-.4.6-.699 1-.799.4-.1.8-.2 1.2-.1.1 0 .3.1.4.1.1 0 .3.1.4.2l-.6 1.695-1.1-.3c-.3-.099-.7-.099-.9 0-.2.1-.5.3-.7.5l-.9 4.288 1.1.498-.2 1.197-4.1-.798ZM130.009 17.253c-.6-.2-1.1-.3-1.6-.599-.5-.2-.9-.498-1.4-.897l.5-2.194 1.4.399v1.296c.2.2.4.3.6.399.2.1.5.2.7.3.5.099 1 .099 1.2 0 .3-.1.4-.3.5-.6.1-.298 0-.498-.2-.797-.2-.3-.6-.499-1.2-.798-.9-.498-1.6-.997-1.9-1.496-.4-.498-.5-1.097-.3-1.795.1-.399.3-.798.7-1.097.3-.299.8-.498 1.3-.598.5-.1 1.1-.1 1.8.1.6.2 1.2.399 1.6.598.4.3.8.499 1.1.798l-.5 2.094-1.4-.3V10.97c-.1-.2-.3-.3-.5-.399-.2-.1-.4-.2-.7-.3-.4-.099-.8-.099-1.1 0-.3.1-.5.3-.5.6v.498c0 .2.2.299.4.498.2.2.5.4.9.599 1 .498 1.7.997 2 1.595.4.499.5 1.097.3 1.795-.2.699-.6 1.297-1.3 1.596-.4 0-1.3 0-2.4-.2ZM133.309 21.241l.4-1.196 1.199.1 2.7-8.378-1.1-.598.4-1.197 2.9.898-.2.997c.4-.299.8-.399 1.2-.498.4-.1.9 0 1.4.1.699.199 1.199.598 1.499 1.096.3.499.5 1.097.6 1.795 0 .698-.1 1.496-.4 2.394l-.1.2c-.3.797-.6 1.395-1 1.894-.399.498-.899.798-1.499.997-.6.2-1.2.2-1.8-.1-.5-.1-.8-.399-1.1-.598-.3-.3-.5-.598-.7-.997l-.8 2.493 1.1.598-.4 1.197-4.299-1.197Zm5.899-2.892c.6.2 1.1.1 1.6-.2.4-.398.8-.897 1-1.695l.1-.199c.2-.598.3-1.097.3-1.496 0-.498-.1-.897-.3-1.197-.2-.299-.5-.598-.9-.698-.3-.1-.7-.1-1-.1-.3.1-.6.2-.8.5l-1.2 3.69c.1.298.2.598.4.797.2.3.5.499.8.598ZM147.307 22.937c-.7-.3-1.3-.699-1.7-1.297-.4-.598-.7-1.197-.7-1.895-.1-.698.1-1.396.4-2.194l.1-.299c.3-.797.7-1.396 1.3-1.894.5-.5 1.1-.798 1.8-.898.7-.1 1.3-.1 2 .2.7.299 1.2.698 1.6 1.196.4.499.6.997.6 1.696 0 .598-.1 1.296-.4 1.994l-.4.997-4.8-1.994c-.1.399-.2.797-.2 1.196 0 .4.1.698.3.998.2.299.5.498.9.698.4.2.8.299 1.2.299.4 0 .8 0 1.2-.1l.1 1.396c-.4.1-.9.2-1.4.2-.6.1-1.2-.1-1.9-.3Zm.3-5.585 3 1.197.1-.2c.1-.299.2-.698.2-.997 0-.3-.1-.598-.2-.798-.2-.2-.4-.399-.7-.598-.3-.1-.6-.1-.9-.1-.3.1-.6.2-.8.499-.2.299-.5.598-.7.997ZM155.106 26.327c-.7-.399-1.2-.798-1.6-1.396-.4-.598-.5-1.197-.5-1.895s.2-1.396.6-2.194l.1-.2c.4-.697.8-1.296 1.4-1.794.6-.399 1.2-.698 1.9-.798.7-.1 1.4.1 2.099.399.6.3 1.2.698 1.5 1.097.4.399.6.898.8 1.396l-1 1.995-1.3-.699.4-1.495-.299-.599c-.2-.2-.4-.299-.6-.399-.4-.199-.8-.299-1.1-.199-.4.1-.7.3-1.1.598-.4.3-.6.698-.9 1.197l-.1.2c-.3.498-.4.997-.4 1.495 0 .4 0 .798.2 1.097.2.3.4.599.8.698.4.2.8.3 1.2.2.4-.1.7-.3 1-.698l1.499.798v.1c-.3.498-.7.797-1.099 1.096-.4.3-.9.4-1.4.4-.9.099-1.5 0-2.1-.4ZM159.105 28.322l.6-.997 1.1.399 2.8-4.787-1-.798.6-.997 2.8 1.595-3.5 6.084.9.797-.6.998-3.7-2.294Zm6.2-8.477.9-1.595 1.799.997-.9 1.596-1.799-.998ZM165.905 32.61c-.7-.499-1.1-.997-1.3-1.695-.1-.599 0-1.297.4-1.895.3-.4.7-.698 1.2-.898.5-.2.999-.2 1.599 0s1.2.4 1.9.898l1.1.698.4-.599c.3-.398.3-.698.3-1.096 0-.4-.3-.699-.7-.998-.2-.2-.5-.299-.7-.399-.2-.1-.4-.1-.7-.1l-.8.798-1.2-.797 1.2-1.696c.5 0 1 .1 1.5.3.5.199 1 .398 1.5.797.9.599 1.4 1.297 1.7 2.095.2.797.1 1.495-.5 2.293l-2.1 3.092c-.1.1-.1.2-.2.299-.1.1-.1.2-.2.299l.6.598-.7.998-2.1-1.496c.1-.2.1-.4.2-.499.1-.2.1-.3.2-.499-.4.1-.9.2-1.299.1-.4-.1-.9-.299-1.3-.598Zm1.199-.997c.3.199.7.398 1.1.398.4 0 .7 0 1-.1l.8-1.196-1.1-.698c-.5-.3-.9-.499-1.3-.399-.4.1-.699.2-.899.499-.2.299-.2.498-.2.797.1.2.3.5.599.699ZM173.104 37.995c-.6-.598-1-1.197-1.1-1.795-.1-.598.2-1.297.7-1.895.3-.399.8-.698 1.3-.798.5-.1 1-.1 1.599.1.6.2 1.2.598 1.8 1.097l1 .798.5-.499c.3-.299.4-.698.4-1.097s-.2-.698-.6-1.097c-.2-.2-.4-.299-.7-.399-.2-.1-.4-.2-.7-.2l-.9.699-1.1-.997 1.4-1.596c.5.1 1 .2 1.5.4.5.198 1 .498 1.4.897.8.698 1.3 1.495 1.4 2.194.1.797-.1 1.495-.7 2.194l-2.5 2.792c-.1.1-.1.2-.2.299-.1.1-.1.2-.2.3l.6.597-.8.898-1.9-1.695c.1-.2.2-.3.2-.499.1-.2.2-.3.3-.499-.4.1-.899.1-1.299 0-.4-.1-1 .1-1.4-.199Zm1.3-.898c.3.3.6.4 1 .5.399.099.699.099.999 0l.9-1.098-1-.897c-.4-.4-.9-.599-1.299-.599-.4 0-.7.2-1 .4-.2.199-.3.498-.3.797.3.399.4.698.7.897ZM177.703 41.984l.9-.798 1 .699 6.799-6.283-.7-1.097.9-.798 2.2 2.393-7.899 7.28.6.998-.9.797-2.9-3.19ZM185.702 52.455c-.4-.698-.6-1.396-.6-1.994 0-.698.2-1.297.6-1.895.4-.598.9-1.097 1.6-1.496l.2-.1c.7-.398 1.4-.698 2.1-.698.7-.1 1.4.1 1.999.4.6.298 1.1.797 1.5 1.495.4.598.6 1.197.7 1.795.1.598.1 1.097-.1 1.596l-1.9 1.196-.799-1.296 1.099-.997c.1-.2.1-.4 0-.698 0-.2-.1-.499-.3-.698-.199-.4-.499-.599-.899-.798-.4-.1-.8-.2-1.2-.1-.4.1-.9.3-1.4.499l-.2.1c-.5.299-.9.598-1.2.997-.3.299-.4.698-.4 1.097 0 .398.1.698.3.997.2.399.5.598.9.798.4.1.7.1 1.2 0l.9 1.496c-.5.199-1 .299-1.5.299s-1-.1-1.4-.4c-.4-.598-.8-.996-1.2-1.595ZM189.002 59.137c-.3-.798-.3-1.496-.1-2.095.3-.598.7-.997 1.5-1.296.5-.2 1-.2 1.5-.1.499.1.899.4 1.299.898.4.498.7 1.097 1 1.795l.4 1.197.7-.2c.4-.2.7-.399.9-.698.2-.3.2-.798 0-1.197-.1-.299-.2-.498-.4-.698-.1-.2-.3-.299-.5-.498l-1.1.2-.5-1.397 2-.698c.4.299.8.698 1.1 1.097.3.399.6.897.8 1.496.4.997.4 1.895.1 2.593-.3.797-.8 1.296-1.7 1.595l-3.5 1.297c-.1 0-.2.1-.3.1-.1 0-.2.1-.299.1l.199.797-1.099.399-.9-2.394c.2-.1.3-.2.5-.299.1-.1.3-.2.5-.299-.4-.1-.8-.399-1.2-.698-.4-.3-.7-.598-.9-.997Zm1.6-.1c.1.399.3.698.6.997.3.3.599.4.899.499l1.3-.499-.4-1.197c-.2-.598-.5-.897-.8-1.097-.399-.199-.699-.199-1.099-.1-.3.1-.5.3-.6.5-.1.199 0 .498.1.897ZM191.102 65.12l1.199-.2.4 1.097 5.5-.797-.2-1.297 1.4-.2.2 1.297.999-.1c.9-.1 1.7 0 2.2.4.5.398.9 1.096 1.1 1.994 0 .2 0 .399.1.698v.698h-1.5v-.897c-.1-.4-.2-.698-.5-.898-.3-.2-.6-.2-1-.2l-1 .1.3 1.895-1.399.2-.3-1.895-5.5.798v1.495l-1.199.2-.8-4.388ZM191.601 74.893c0-.797.201-1.496.6-2.094.4-.598.9-.997 1.5-1.296.6-.3 1.4-.4 2.2-.4h.3c.8 0 1.5.2 2.2.6.7.398 1.1.797 1.5 1.395.299.599.499 1.197.499 1.895 0 .798-.2 1.396-.499 1.895-.3.498-.8.897-1.4 1.097-.6.2-1.3.299-2 .299h-1.1l.2-5.186c-.4 0-.8.1-1.2.2-.4.2-.6.399-.8.698-.2.299-.3.698-.3 1.097 0 .498 0 .897.1 1.296.1.4.3.698.5 1.097l-1.3.599c-.3-.3-.5-.798-.699-1.297-.2-.499-.301-1.197-.301-1.895Zm5.3-1.595-.1 3.29h.2c.4 0 .7 0 1-.1.3-.099.5-.298.7-.498.2-.2.3-.498.3-.897 0-.3-.1-.599-.2-.798-.1-.2-.4-.399-.7-.598-.3-.2-.7-.4-1.2-.4Z" fill="#593B00"/></svg>